<svg width="32" height="32" viewBox="0 0 32 32" fill="none" xmlns="http://www.w3.org/2000/svg">
<circle cx="16" cy="16" r="15.5" transform="rotate(-90 16 16)" stroke="#FF4800"/>
<path d="M15.9998 13.0656C14.3806 13.0656 13.0654 14.3808 13.0654 16C13.0654 17.6192 14.3806 18.9376 15.9998 18.9376C17.619 18.9376 18.9374 17.6192 18.9374 16C18.9374 14.3808 17.619 13.0656 15.9998 13.0656Z" fill="#FF4800"/>
<path d="M20.4288 8H11.5712C9.6032 8 8 9.6032 8 11.5712V20.4288C8 22.4 9.6032 24 11.5712 24H20.4288C22.4 24 24 22.4 24 20.4288V11.5712C24 9.6032 22.4 8 20.4288 8ZM16 21.184C13.1424 21.184 10.816 18.8576 10.816 16C10.816 13.1424 13.1424 10.8192 16 10.8192C18.8576 10.8192 21.184 13.1424 21.184 16C21.184 18.8576 18.8576 21.184 16 21.184ZM21.2928 11.76C20.688 11.76 20.1952 11.2704 20.1952 10.6656C20.1952 10.0608 20.688 9.568 21.2928 9.568C21.8976 9.568 22.3904 10.0608 22.3904 10.6656C22.3904 11.2704 21.8976 11.76 21.2928 11.76Z" fill="#FF4800"/>
</svg>
