<svg aria-hidden="true" xmlns="http://www.w3.org/2000/svg" xmlns:xlink="http://www.w3.org/1999/xlink"><symbol viewBox="0 0 32 16" id="arrow-bold-btn" xmlns="http://www.w3.org/2000/svg">
<path d="M31.2071 8.70711C31.5976 8.31658 31.5976 7.68342 31.2071 7.29289L24.8431 0.928932C24.4526 0.538408 23.8195 0.538408 23.4289 0.928932C23.0384 1.31946 23.0384 1.95262 23.4289 2.34315L29.0858 8L23.4289 13.6569C23.0384 14.0474 23.0384 14.6805 23.4289 15.0711C23.8195 15.4616 24.4526 15.4616 24.8431 15.0711L31.2071 8.70711ZM0.5 9H30.5V7H0.5V9Z"/>
</symbol><symbol viewBox="0 0 31 8" id="arrow-btn" xmlns="http://www.w3.org/2000/svg">
<path d="M30.8536 4.35355C31.0488 4.15829 31.0488 3.84171 30.8536 3.64645L27.6716 0.464466C27.4763 0.269204 27.1597 0.269204 26.9645 0.464466C26.7692 0.659728 26.7692 0.976311 26.9645 1.17157L29.7929 4L26.9645 6.82843C26.7692 7.02369 26.7692 7.34027 26.9645 7.53553C27.1597 7.7308 27.4763 7.7308 27.6716 7.53553L30.8536 4.35355ZM0.5 4.5H30.5V3.5H0.5V4.5Z"/>
</symbol><symbol viewBox="0 0 32 32" id="facebook" xmlns="http://www.w3.org/2000/svg">
<path d="M20.2699 10.6248V8.02327C20.2699 8.02327 17.6079 8 17.4264 8C16.2211 8 14.4945 9.36824 14.4945 10.9226V13.7103H12V16.6655H14.4572V24H17.3659V16.6283H19.9395L20.2653 13.7382H17.3985V11.6161C17.3985 11.1088 17.7801 10.6062 18.3572 10.6062C18.7435 10.6108 20.2699 10.6248 20.2699 10.6248Z"/>

</symbol><symbol viewBox="0 0 32 32" id="instagram" xmlns="http://www.w3.org/2000/svg">

<path d="M15.9998 13.0656C14.3806 13.0656 13.0654 14.3808 13.0654 16C13.0654 17.6192 14.3806 18.9376 15.9998 18.9376C17.619 18.9376 18.9374 17.6192 18.9374 16C18.9374 14.3808 17.619 13.0656 15.9998 13.0656Z"/>
<path d="M20.4288 8H11.5712C9.6032 8 8 9.6032 8 11.5712V20.4288C8 22.4 9.6032 24 11.5712 24H20.4288C22.4 24 24 22.4 24 20.4288V11.5712C24 9.6032 22.4 8 20.4288 8ZM16 21.184C13.1424 21.184 10.816 18.8576 10.816 16C10.816 13.1424 13.1424 10.8192 16 10.8192C18.8576 10.8192 21.184 13.1424 21.184 16C21.184 18.8576 18.8576 21.184 16 21.184ZM21.2928 11.76C20.688 11.76 20.1952 11.2704 20.1952 10.6656C20.1952 10.0608 20.688 9.568 21.2928 9.568C21.8976 9.568 22.3904 10.0608 22.3904 10.6656C22.3904 11.2704 21.8976 11.76 21.2928 11.76Z"/>
</symbol></svg>