<svg width="150" height="97" viewBox="0 0 150 97" fill="none" xmlns="http://www.w3.org/2000/svg">
<path d="M96.2908 83.954H70.699C70.293 83.954 69.9037 83.7928 69.6167 83.5057C69.3296 83.2187 69.1684 82.8294 69.1684 82.4234V82.1938C69.2243 80.6724 68.973 79.1553 68.4294 77.7332C67.8857 76.3111 67.061 75.0132 66.0044 73.917C64.9478 72.8209 63.6811 71.949 62.28 71.3534C60.8788 70.7579 59.372 70.451 57.8495 70.451C56.327 70.451 54.8202 70.7579 53.419 71.3534C52.0179 71.949 50.7511 72.8209 49.6946 73.917C48.638 75.0132 47.8132 76.3111 47.2696 77.7332C46.726 79.1553 46.4747 80.6724 46.5306 82.1938V82.4234C46.5306 82.8294 46.3694 83.2187 46.0823 83.5057C45.7953 83.7928 45.4059 83.954 45 83.954H38.1582C37.7522 83.954 37.3629 83.7928 37.0759 83.5057C36.7888 83.2187 36.6276 82.8294 36.6276 82.4234V82.1938C36.6276 80.7064 36.3346 79.2335 35.7654 77.8593C35.1962 76.4851 34.3619 75.2365 33.3101 74.1848C32.2583 73.133 31.0097 72.2987 29.6355 71.7295C28.2613 71.1603 26.7884 70.8673 25.301 70.8673C23.8136 70.8673 22.3407 71.1603 20.9665 71.7295C19.5923 72.2987 18.3437 73.133 17.292 74.1848C16.2402 75.2365 15.4059 76.4851 14.8367 77.8593C14.2675 79.2335 13.9745 80.7064 13.9745 82.1938V82.4234C13.9745 82.8294 13.8132 83.2187 13.5262 83.5057C13.2391 83.7928 12.8498 83.954 12.4439 83.954H7.53061C5.53337 83.954 3.61793 83.1606 2.20567 81.7484C0.793402 80.3361 0 78.4207 0 76.4234L0 60.7193C0 60.3134 0.161261 59.9241 0.448306 59.637C0.735351 59.35 1.12467 59.1887 1.53061 59.1887H96.2755C96.6815 59.1887 97.0708 59.35 97.3578 59.637C97.6449 59.9241 97.8061 60.3134 97.8061 60.7193V82.4234C97.8061 82.8267 97.647 83.2137 97.3632 83.5003C97.0795 83.787 96.6941 83.95 96.2908 83.954ZM72.1684 80.8928H94.7602V62.2499H3.06122V76.4234C3.05921 77.0096 3.17293 77.5905 3.39587 78.1326C3.6188 78.6748 3.94657 79.1676 4.36037 79.5828C4.77417 79.998 5.26587 80.3275 5.80726 80.5523C6.34865 80.7771 6.9291 80.8928 7.51531 80.8928H10.9745C11.305 77.3217 12.9573 74.0028 15.6074 71.5866C18.2576 69.1703 21.7147 67.8309 25.301 67.8309C28.8874 67.8309 32.3444 69.1703 34.9946 71.5866C37.6448 74.0028 39.2971 77.3217 39.6275 80.8928H43.5306C43.8409 77.309 45.4838 73.9719 48.1348 71.5405C50.7859 69.109 54.2523 67.7601 57.8495 67.7601C61.4467 67.7601 64.9131 69.109 67.5641 71.5405C70.2152 73.9719 71.8581 77.309 72.1684 80.8928Z" fill="#EAEDEF"/>
<path d="M89.9847 62.2653H1.53061C1.12467 62.2653 0.735351 62.104 0.448306 61.817C0.161261 61.53 0 61.1406 0 60.7347V8.08164C0.00404459 6.08564 0.798745 4.17255 2.21013 2.76116C3.62152 1.34977 5.53461 0.55507 7.53061 0.551025L83.9847 0.551025C85.9807 0.55507 87.8938 1.34977 89.3052 2.76116C90.7166 4.17255 91.5113 6.08564 91.5153 8.08164V60.7347C91.5153 61.1406 91.354 61.53 91.067 61.817C90.78 62.104 90.3906 62.2653 89.9847 62.2653ZM3.06122 59.2041H88.4541V8.08164C88.4541 6.89628 87.9832 5.75948 87.145 4.9213C86.3069 4.08313 85.17 3.61225 83.9847 3.61225H7.53061C6.34526 3.61225 5.20845 4.08313 4.37028 4.9213C3.5321 5.75948 3.06122 6.89628 3.06122 8.08164V59.2041Z" fill="#EAEDEF"/>
<path d="M143.342 83.9541H135.23C134.824 83.9541 134.434 83.7928 134.147 83.5057C133.86 83.2187 133.699 82.8294 133.699 82.4234V82.1938C133.755 80.6724 133.504 79.1553 132.96 77.7332C132.416 76.3111 131.592 75.0132 130.535 73.917C129.478 72.8209 128.212 71.949 126.811 71.3535C125.409 70.7579 123.903 70.451 122.38 70.451C120.858 70.451 119.351 70.7579 117.95 71.3535C116.548 71.949 115.282 72.8209 114.225 73.917C113.169 75.0132 112.344 76.3111 111.8 77.7332C111.257 79.1553 111.005 80.6724 111.061 82.1938V82.4234C111.061 82.8294 110.9 83.2187 110.613 83.5057C110.326 83.7928 109.937 83.9541 109.531 83.9541H96.2908C95.8849 83.9541 95.4956 83.7928 95.2085 83.5057C94.9215 83.2187 94.7602 82.8294 94.7602 82.4234V31.5306C94.7562 30.6798 94.9203 29.8366 95.2431 29.0494C95.5659 28.2622 96.041 27.5465 96.6412 26.9434C97.2414 26.3404 97.9548 25.8619 98.7405 25.5354C99.5261 25.2089 100.369 25.0408 101.219 25.0408H109.852C112.632 25.037 115.351 25.8562 117.666 27.3952C119.982 28.9341 121.789 31.124 122.862 33.6887L128.296 46.6683C128.52 47.2112 128.859 47.699 129.289 48.0981C129.72 48.4971 130.232 48.7979 130.791 48.9796L140.816 52.3775C142.241 52.8598 143.48 53.7759 144.358 54.9973C145.236 56.2187 145.711 57.6843 145.714 59.1887V67.8979C145.712 68.5675 145.856 69.2296 146.136 69.8377C146.416 70.4459 146.826 70.9853 147.337 71.4183C148.182 72.145 148.858 73.0475 149.318 74.0627C149.778 75.0779 150.011 76.1814 150 77.2959C150 79.0617 149.299 80.7553 148.05 82.0039C146.801 83.2526 145.108 83.9541 143.342 83.9541ZM136.699 80.8928H143.342C144.296 80.8928 145.211 80.5139 145.885 79.8393C146.56 79.1647 146.939 78.2499 146.939 77.2959C146.937 76.6314 146.791 75.9753 146.511 75.3728C146.231 74.7703 145.823 74.2358 145.316 73.8061C144.459 73.0805 143.772 72.175 143.303 71.1539C142.835 70.1328 142.597 69.0212 142.607 67.8979V59.1887C142.604 58.3255 142.331 57.4849 141.826 56.7849C141.321 56.0849 140.609 55.5606 139.791 55.2857L129.811 51.9183C128.85 51.5897 127.97 51.061 127.229 50.3671C126.487 49.6732 125.902 48.8299 125.51 47.8928L120.077 34.9132C119.239 32.8924 117.82 31.166 116 29.9533C114.179 28.7406 112.039 28.0962 109.852 28.102H101.219C100.319 28.106 99.4575 28.4653 98.8211 29.1017C98.1848 29.7381 97.8255 30.6 97.8214 31.5V80.8928H108.061C108.372 77.309 110.014 73.9719 112.665 71.5405C115.316 69.1091 118.783 67.7601 122.38 67.7601C125.977 67.7601 129.444 69.1091 132.095 71.5405C134.746 73.9719 136.389 77.309 136.699 80.8928Z" fill="#EAEDEF"/>
<path d="M127.867 51.1838H96.2909C95.8849 51.1838 95.4956 51.0225 95.2086 50.7355C94.9215 50.4484 94.7603 50.0591 94.7603 49.6532C94.7603 49.2472 94.9215 48.8579 95.2086 48.5709C95.4956 48.2838 95.8849 48.1226 96.2909 48.1226H127.867C128.273 48.1226 128.663 48.2838 128.95 48.5709C129.237 48.8579 129.398 49.2472 129.398 49.6532C129.398 50.0591 129.237 50.4484 128.95 50.7355C128.663 51.0225 128.273 51.1838 127.867 51.1838Z" fill="#EAEDEF"/>
<path d="M122.449 96.5663C119.602 96.5693 116.818 95.7277 114.45 94.1479C112.081 92.5681 110.235 90.3212 109.144 87.6916C108.053 85.0619 107.767 82.1677 108.322 79.3754C108.876 76.583 110.247 74.0179 112.26 72.0049C114.273 69.9918 116.838 68.6212 119.631 68.0665C122.423 67.5118 125.317 67.798 127.947 68.8889C130.576 69.9798 132.823 71.8263 134.403 74.1947C135.983 76.5631 136.824 79.3469 136.821 82.1938C136.817 86.0044 135.302 89.6577 132.607 92.3522C129.913 95.0467 126.26 96.5622 122.449 96.5663ZM122.449 70.8673C120.208 70.8643 118.017 71.526 116.152 72.7687C114.287 74.0115 112.833 75.7794 111.974 77.8487C111.114 79.9181 110.888 82.196 111.323 84.3941C111.758 86.5923 112.836 88.6119 114.419 90.1975C116.003 91.783 118.021 92.8633 120.218 93.3016C122.416 93.7399 124.694 93.5165 126.765 92.6596C128.835 91.8028 130.605 90.3511 131.85 88.4881C133.096 86.6251 133.76 84.4347 133.76 82.1938C133.756 79.1937 132.564 76.3175 130.444 74.1946C128.324 72.0718 125.449 70.8754 122.449 70.8673Z" fill="#EAEDEF"/>
<path d="M57.8413 96.5663C54.995 96.5663 52.2127 95.7221 49.8463 94.1404C47.4799 92.5588 45.6358 90.3109 44.5473 87.6809C43.4588 85.051 43.1747 82.1574 43.7311 79.366C44.2875 76.5746 45.6594 74.011 47.6731 71.9994C49.6867 69.9879 52.2518 68.6188 55.0438 68.0654C57.8357 67.5119 60.7291 67.7991 63.3579 68.8904C65.9866 69.9817 68.2326 71.8282 69.8117 74.1963C71.3908 76.5643 72.2321 79.3476 72.2291 82.1938C72.225 86.0071 70.7074 89.6627 68.0096 92.3576C65.3118 95.0525 61.6545 96.5663 57.8413 96.5663ZM57.8413 70.8673C55.6011 70.8673 53.4113 71.5316 51.5486 72.7762C49.686 74.0207 48.2342 75.7897 47.377 77.8594C46.5197 79.929 46.2954 82.2064 46.7324 84.4035C47.1694 86.6007 48.2482 88.6189 49.8322 90.2029C51.4163 91.7869 53.4345 92.8657 55.6316 93.3027C57.8287 93.7398 60.1061 93.5155 62.1758 92.6582C64.2454 91.8009 66.0144 90.3492 67.259 88.4865C68.5035 86.6239 69.1678 84.434 69.1678 82.1938C69.1678 79.1899 67.9745 76.3089 65.8504 74.1848C63.7262 72.0606 60.8453 70.8673 57.8413 70.8673Z" fill="#EAEDEF"/>
<path d="M25.301 96.5663C22.4547 96.5663 19.6724 95.7221 17.306 94.1404C14.9396 92.5588 13.0955 90.3109 12.007 87.6809C10.9185 85.051 10.6345 82.1574 11.1909 79.366C11.7473 76.5746 13.1191 74.011 15.1328 71.9994C17.1465 69.9879 19.7115 68.6188 22.5035 68.0654C25.2955 67.5119 28.1888 67.7991 30.8176 68.8904C33.4463 69.9817 35.6923 71.8282 37.2714 74.1963C38.8506 76.5643 39.6918 79.3476 39.6888 82.1938C39.6807 86.0058 38.1617 89.6591 35.4648 92.3532C32.7679 95.0472 29.113 96.5622 25.301 96.5663ZM25.301 70.8673C23.0608 70.8673 20.871 71.5316 19.0083 72.7762C17.1457 74.0207 15.694 75.7897 14.8367 77.8594C13.9794 79.929 13.7551 82.2064 14.1921 84.4035C14.6292 86.6007 15.7079 88.6189 17.292 90.2029C18.876 91.7869 20.8942 92.8657 23.0913 93.3027C25.2885 93.7398 27.5658 93.5155 29.6355 92.6582C31.7051 91.8009 33.4741 90.3492 34.7187 88.4865C35.9633 86.6239 36.6276 84.434 36.6276 82.1938C36.6235 79.1911 35.4289 76.3125 33.3056 74.1892C31.1824 72.066 28.3038 70.8714 25.301 70.8673Z" fill="#EAEDEF"/>
</svg>
