<svg width="148" height="100" viewBox="0 0 148 100" fill="none" xmlns="http://www.w3.org/2000/svg">
<path d="M69.9187 84.7992C69.9187 86.6355 71.4128 88.1309 73.2492 88.1309C75.0855 88.1309 76.5808 86.6367 76.5808 84.7992C76.5808 82.9617 75.0867 81.4676 73.2492 81.4676C71.4117 81.4676 69.9187 82.9617 69.9187 84.7992ZM74.2371 84.7992C74.2371 85.3441 73.7941 85.7871 73.2492 85.7871C72.7054 85.7871 72.2624 85.3441 72.2624 84.7992C72.2624 84.2543 72.7054 83.8113 73.2492 83.8113C73.7941 83.8113 74.2371 84.2543 74.2371 84.7992ZM45.0281 88.1309C46.8644 88.1309 48.3585 86.6367 48.3585 84.7992C48.3585 82.9617 46.8644 81.4676 45.0281 81.4676C43.1917 81.4676 41.6976 82.9617 41.6976 84.7992C41.6976 86.6367 43.1917 88.1309 45.0281 88.1309ZM45.0281 83.8113C45.5718 83.8113 46.0148 84.2543 46.0148 84.7992C46.0148 85.3441 45.5718 85.7871 45.0281 85.7871C44.4843 85.7871 44.0413 85.3441 44.0413 84.7992C44.0413 84.2543 44.4843 83.8113 45.0281 83.8113ZM20.1374 84.7992C20.1374 82.9629 18.6433 81.4676 16.8058 81.4676C14.9683 81.4676 13.4753 82.9617 13.4753 84.7992C13.4753 86.6367 14.9695 88.1309 16.8058 88.1309C18.6421 88.1309 20.1374 86.6355 20.1374 84.7992ZM15.8191 84.7992C15.8191 84.2543 16.262 83.8113 16.8058 83.8113C17.3507 83.8113 17.7937 84.2543 17.7937 84.7992C17.7937 85.3441 17.3507 85.7871 16.8058 85.7871C16.262 85.7871 15.8191 85.3441 15.8191 84.7992ZM16.8058 74.3977C11.0706 74.3977 6.40541 79.0629 6.40541 84.7992C6.40541 90.5344 11.0706 95.1996 16.8058 95.1996H73.2492C78.9843 95.1996 83.6507 90.5344 83.6507 84.7992C83.6507 79.0629 78.9843 74.3977 73.2492 74.3977H16.8058ZM53.0847 84.7992C53.0847 89.2418 49.4706 92.8559 45.0281 92.8559C40.5855 92.8559 36.9714 89.2418 36.9714 84.7992C36.9714 80.3566 40.5855 76.7414 45.0281 76.7414C49.4706 76.7414 53.0847 80.3566 53.0847 84.7992ZM8.74916 84.7992C8.74916 80.3566 12.3632 76.7414 16.8058 76.7414C21.2484 76.7414 24.8624 80.3566 24.8624 84.7992C24.8624 89.2418 21.2484 92.8559 16.8058 92.8559C12.3632 92.8559 8.74916 89.2418 8.74916 84.7992ZM23.373 92.8559C25.7109 90.9469 27.2074 88.0453 27.2074 84.7992C27.2074 81.552 25.7109 78.6504 23.373 76.7414H38.462C36.1242 78.6504 34.6277 81.552 34.6277 84.7992C34.6277 88.0453 36.1242 90.9469 38.462 92.8559H23.373ZM81.307 84.7992C81.307 89.2418 77.6929 92.8559 73.2492 92.8559C68.8066 92.8559 65.1925 89.2418 65.1925 84.7992C65.1925 80.3566 68.8066 76.7414 73.2492 76.7414C77.6917 76.7414 81.307 80.3566 81.307 84.7992ZM66.6831 76.7414C64.3453 78.6504 62.8488 81.552 62.8488 84.7992C62.8488 88.0453 64.3453 90.9469 66.6831 92.8559H51.5941C53.932 90.9469 55.4285 88.0453 55.4285 84.7992C55.4285 81.552 53.932 78.6504 51.5941 76.7414H66.6831ZM146.844 91.9898C116.033 79.3336 111.286 42.9023 111.24 42.5367C111.169 41.9484 110.669 41.5055 110.076 41.5055H103.771C103.124 41.5055 102.599 42.0305 102.599 42.6773V46.193H77.8956V45.3035C77.8956 42.2285 75.3937 39.7266 72.3187 39.7266H66.4242L47.0706 6.60937H51.5226C52.1695 6.60937 52.6945 6.08437 52.6945 5.4375C52.6945 2.43984 50.2546 0 47.257 0H21.8578C21.2109 0 20.6859 0.525 20.6859 1.17188V5.4375C20.6859 6.08437 21.2109 6.60937 21.8578 6.60937H23.1292V39.7254H19.9792V23.1164C19.9792 22.6652 19.7203 22.2551 19.3148 22.0594L9.55189 17.3766C9.18744 17.2031 8.76205 17.2277 8.41986 17.4422C8.07885 17.6566 7.8726 18.0316 7.8726 18.4348L7.87611 23.9602C7.87611 24.4113 8.1351 24.8215 8.54056 25.016L12.6538 26.9895V39.7254H11.9812C8.90502 39.7254 6.40424 42.2273 6.40424 45.3023V58.0687C6.40424 61.1437 8.90619 63.6457 11.9812 63.6457H23.1292V70.2375H14.5617C6.53197 70.2375 -6.10352e-05 76.7695 -6.10352e-05 84.7992C-6.10352e-05 92.8289 6.53197 99.3609 14.5617 99.3609H75.4921C83.5218 99.3609 90.0527 92.8289 90.0527 84.7992C90.0527 76.7695 83.5206 70.2375 75.4921 70.2375H66.9246V63.6457H72.3199C72.9035 63.6457 73.4554 63.5309 73.9839 63.3633L106.221 76.8504L117.368 90.573C119.264 92.9062 122.075 94.2457 125.082 94.2457H146.398C146.958 94.2457 147.439 93.8496 147.547 93.3C147.657 92.7516 147.362 92.2031 146.844 91.9898ZM102.6 65.1727L79.6429 55.568H102.6V65.1727ZM77.8968 58.0687V57.3785L102.6 67.7144V68.8629C102.6 70.3793 102.957 71.8687 103.616 73.2199L76.4062 61.8363C77.3238 60.8414 77.8968 59.5254 77.8968 58.0687ZM102.6 48.5355V53.223H77.8968V48.5355H102.6ZM58.9171 31.5223H33.6761V14.8137H49.1496L58.9171 31.5223ZM23.0296 2.34375H47.257C48.5484 2.34375 49.657 3.13945 50.1199 4.26562H23.0296V2.34375ZM25.4742 6.60937H44.3554L47.7808 12.4687H32.5042C31.8574 12.4687 31.3324 12.9937 31.3324 13.6406V32.6941C31.3324 33.341 31.8574 33.866 32.5042 33.866H60.2859L63.7101 39.7254H25.4742V6.60937ZM14.3378 25.1965L10.221 23.2219L10.2187 20.2969L17.6367 23.8547V39.7266H14.9999V26.3379C15.0339 25.8668 14.7796 25.4086 14.3378 25.1965ZM87.7101 84.7992C87.7101 91.5363 82.2292 97.0172 75.4933 97.0172H14.5628C7.82572 97.0172 2.34486 91.5363 2.34486 84.7992C2.34486 78.0621 7.82572 72.5812 14.5628 72.5812H75.4933C82.2304 72.5812 87.7101 78.0621 87.7101 84.7992ZM64.582 70.2375H25.4742V63.6457H64.582V70.2375ZM11.9824 61.3019C10.1999 61.3019 8.74916 59.8523 8.74916 58.0687V45.3023C8.74916 43.5199 10.1999 42.0691 11.9824 42.0691H72.321C74.1035 42.0691 75.5542 43.5199 75.5542 45.3023V58.0687C75.5542 59.8512 74.1035 61.3019 72.321 61.3019H11.9824ZM125.084 91.9019C122.785 91.9019 120.637 90.8789 119.189 89.0941L106.643 73.6512C105.547 72.3012 104.944 70.5996 104.944 68.8617V43.848H109.071C110.048 49.6723 116.091 78.5848 141.148 91.9019H125.084ZM25.0359 45.0199H15.6843C14.0695 45.0199 12.7546 46.3348 12.7546 47.9496C12.7546 49.5645 14.0695 50.8793 15.6843 50.8793H25.0359C26.6507 50.8793 27.9656 49.5645 27.9656 47.9496C27.9656 46.3348 26.6519 45.0199 25.0359 45.0199ZM25.0359 48.5355H15.6843C15.3609 48.5355 15.0984 48.273 15.0984 47.9496C15.0984 47.6262 15.3609 47.3637 15.6843 47.3637H25.0359C25.3593 47.3637 25.6218 47.6262 25.6218 47.9496C25.6218 48.273 25.3593 48.5355 25.0359 48.5355ZM25.0359 52.4906H15.6843C14.0695 52.4906 12.7546 53.8043 12.7546 55.4203C12.7546 57.0363 14.0695 58.35 15.6843 58.35H25.0359C26.6507 58.35 27.9656 57.0363 27.9656 55.4203C27.9656 53.8043 26.6519 52.4906 25.0359 52.4906ZM25.0359 56.0062H15.6843C15.3609 56.0062 15.0984 55.7426 15.0984 55.4203C15.0984 55.098 15.3609 54.8344 15.6843 54.8344H25.0359C25.3593 54.8344 25.6218 55.098 25.6218 55.4203C25.6218 55.7426 25.3593 56.0062 25.0359 56.0062Z" fill="#EAEDEF"/>
</svg>
