<svg width="150" height="150" viewBox="0 0 150 150" fill="none" xmlns="http://www.w3.org/2000/svg">
<path d="M75.0972 24.3355C103.369 24.3355 126.308 47.2456 126.308 75.5464C126.308 103.818 103.369 126.757 75.0972 126.757C57.1382 126.757 41.0835 117.47 31.855 102.998C31.8257 103.437 31.6206 103.847 31.269 104.111L26.6401 107.539C33.1147 117.382 42.519 125.087 53.4761 129.482C54.2378 129.775 54.5894 130.625 54.2964 131.386C54.0034 132.148 53.1538 132.5 52.3921 132.207C40.9077 127.607 31.0933 119.55 24.2964 109.296L21.396 111.435C20.4878 112.109 19.1987 111.523 19.0815 110.439L17.6753 98.2222C17.5581 97.1382 18.6421 96.2007 19.814 96.7574L30.9761 101.591H31.0054C19.0815 81.4644 22.3921 55.8003 38.8862 39.3355C48.144 30.0777 60.9468 24.3355 75.0972 24.3355ZM109.228 41.4156C90.3901 22.5777 59.8042 22.5777 40.9663 41.4156C22.0991 60.2535 22.0991 90.8394 40.9663 109.707C59.8042 128.544 90.3901 128.544 109.228 109.707C128.066 90.8101 128.066 60.2535 109.228 41.4156ZM81.0737 54.6578C84.5308 55.6246 87.6655 57.4703 90.2143 59.9312L93.7007 57.939L97.9487 56.4449C98.6519 56.2105 99.4136 56.5328 99.7358 57.148L103.369 63.4468C103.72 64.0621 103.574 64.8238 103.046 65.2925C98.9448 68.8081 100.41 67.8121 96.1909 70.2437C97.0698 73.7007 97.0698 77.3335 96.1909 80.8199L99.6479 82.8413L103.046 85.771C103.574 86.2398 103.691 87.0308 103.369 87.6167L99.6772 93.9742C99.3257 94.6187 98.5347 94.8531 97.8608 94.5894C97.0991 94.2964 93.7593 93.2124 93.3491 92.9781L90.1851 91.1324C87.6362 93.6226 84.5015 95.439 81.0444 96.4058C81.0444 97.1089 81.103 100.068 80.9858 100.537L80.1655 104.843C80.019 105.546 79.4038 106.044 78.73 106.044H71.3765C70.6147 106.044 69.9995 105.459 69.9116 104.755L69.062 100.185V96.4351C65.605 95.4683 62.4702 93.6226 59.9214 91.1617L56.4351 93.1539L52.187 94.648C51.4839 94.8824 50.7222 94.5601 50.3999 93.9156L46.7671 87.6167C46.4155 87.0015 46.562 86.2398 47.0894 85.771L50.7222 82.6949L53.9741 80.8199C53.1245 77.3628 53.1245 73.73 53.9741 70.2437L50.4878 68.1929L47.1186 65.2925C46.562 64.8238 46.4448 64.0328 46.7964 63.4468L50.4878 57.0894C50.8393 56.4449 51.6304 56.2105 52.3042 56.4742C53.0659 56.7671 56.4058 57.8511 56.8159 58.0855L59.98 59.9019C62.5288 57.441 65.6636 55.5953 69.1206 54.6285C69.1206 53.9253 69.062 50.9664 69.1792 50.4976L69.9995 46.191C70.146 45.4878 70.7612 44.9898 71.4351 44.9898H78.7886C79.5503 44.9898 80.1655 45.5464 80.2534 46.2789L81.103 50.8492V54.6578H81.0737ZM84.4722 59.2281C82.8901 58.3199 81.1909 57.646 79.3745 57.2066C78.6714 57.1187 78.1147 56.5035 78.1147 55.771V51.0249L77.5288 47.9488H72.6069L72.021 51.0249V55.771C72.021 56.4449 71.5522 57.0308 70.8784 57.1773C67.187 58.0269 63.8472 59.9898 61.269 62.7437C60.8003 63.2417 60.0679 63.3589 59.4819 63.0074L55.3804 60.6343L52.4214 59.6089L49.9604 63.8863L52.3335 65.9371L56.4351 68.3101C57.021 68.6324 57.2847 69.3355 57.1089 70.0093C56.0542 73.4664 55.9663 77.6265 57.0796 81.0542C57.314 81.6988 57.0503 82.4312 56.4351 82.8121L52.3335 85.1851L49.9311 87.2359L52.3921 91.5132L55.3804 90.4878L59.394 88.1734C59.98 87.7632 60.771 87.8511 61.269 88.3785C62.5581 89.7554 64.0229 90.9566 65.6636 91.8941C67.2456 92.8023 68.9448 93.4761 70.7612 93.9156C71.4643 94.0035 72.021 94.6187 72.021 95.3511V100.097L72.6069 103.173H77.5288L78.1147 100.097V95.3511C78.1147 94.6773 78.5835 94.0914 79.2573 93.9449C82.9487 93.0953 86.2886 91.1324 88.8667 88.3785C89.3062 87.9097 90.0679 87.7632 90.6538 88.1148L94.7554 90.4878L97.7143 91.5132L100.175 87.2359L97.7729 85.1851L93.7593 82.8706C93.144 82.5484 92.8218 81.816 93.0268 81.1421C94.1401 77.5679 94.1401 73.6421 93.0268 70.0386C92.8218 69.3941 93.0854 68.691 93.7007 68.3394L97.7729 65.9664L100.175 63.9156L97.7143 59.6382L94.7554 60.6929L90.7417 63.0074C90.1558 63.3882 89.3647 63.3296 88.8667 62.8023C87.6069 61.3667 86.1128 60.1949 84.4722 59.2281ZM75.0972 62.3921C82.3628 62.3921 88.2515 68.2808 88.2515 75.5464C88.2515 82.812 82.3628 88.7007 75.0972 88.7007C67.8315 88.7007 61.9429 82.812 61.9429 75.5464C61.9429 68.2808 67.8315 62.3921 75.0972 62.3921ZM82.3042 68.3101C78.3198 64.3257 71.8452 64.3257 67.8315 68.3101C63.8472 72.2945 63.8472 78.7691 67.8315 82.7535C71.8159 86.7378 78.2905 86.7378 82.3042 82.7535C86.2886 78.7691 86.2886 72.2945 82.3042 68.3101ZM75.0972 35.2046C97.3628 35.2046 115.439 53.2515 115.439 75.5464C115.439 97.812 97.3921 115.888 75.0972 115.888C52.8022 115.888 34.7554 97.812 34.7554 75.5464C34.7554 53.2808 52.8315 35.2046 75.0972 35.2046ZM101.523 49.0914C86.9038 34.4722 63.2319 34.4722 48.6421 49.0914C34.0229 63.6812 34.0229 87.3824 48.6421 101.972C63.2612 116.591 86.9331 116.591 101.523 101.972C116.142 87.3824 116.142 63.7105 101.523 49.0914ZM35.0483 33.7105C33.6421 35.0289 31.6206 32.9195 33.0268 31.6011C43.3979 21.7281 56.8745 15.7515 71.3472 14.8726L70.7026 9.2476C70.5854 8.16362 71.6694 7.22612 72.8413 7.78276L84.0034 12.6167C85.0288 13.0562 85.1753 14.4624 84.2964 15.1363L74.4233 22.4605C73.5151 23.1343 72.2261 22.5484 72.1089 21.4644L71.6987 17.773C57.8413 18.564 44.9507 24.2476 35.0483 33.7105ZM91.269 19.9703C89.4233 19.4429 90.2437 16.6304 92.0894 17.1578C104.775 20.8199 115.878 28.5835 123.759 39.0425L127.304 36.1128C128.183 35.3804 129.501 35.9078 129.677 36.9917L131.699 49.1206C131.875 50.2046 130.82 51.1714 129.677 50.7027L118.251 46.4253C117.167 46.0152 116.992 44.6089 117.841 43.9351L121.503 40.9175C113.974 30.8687 103.398 23.4859 91.269 19.9703ZM132.197 65.5562C131.875 63.6519 134.746 63.1539 135.068 65.0582C137.236 77.3335 135.595 89.9898 130.38 101.24L134.541 103.056C135.566 103.496 135.712 104.902 134.833 105.576L124.96 112.9C124.052 113.574 122.763 112.988 122.646 111.904L121.24 99.687C121.123 98.6031 122.207 97.6656 123.378 98.2222L127.685 100.097C132.695 89.3453 134.248 77.2749 132.197 65.5562ZM116.904 115.859C118.222 114.482 120.332 116.503 119.013 117.88C109.316 127.959 96.5132 134.462 82.48 136.132L83.2417 140.673C83.4175 141.757 82.3628 142.724 81.2202 142.255L69.7944 137.978C68.7104 137.568 68.5347 136.162 69.3843 135.488L78.8765 127.695C79.7554 126.962 81.0737 127.49 81.2495 128.574L82.0405 133.291C95.3706 131.679 107.675 125.468 116.904 115.859ZM19.4038 91.8941C19.9311 93.7398 17.1479 94.5601 16.5913 92.7144C12.6655 79.2085 13.5151 64.7359 19.0229 51.816L14.7163 50.2046C13.6323 49.7945 13.4565 48.3882 14.3061 47.7144L23.769 39.9214C24.6479 39.189 25.9663 39.7164 26.1421 40.8003L28.1636 52.9292C28.3393 54.0132 27.2847 54.98 26.1421 54.5113L21.7476 52.8706C16.5034 65.1167 15.6538 79.0328 19.4038 91.8941ZM24.1792 101.826L20.8686 100.39L21.689 107.568L27.4897 103.261L24.1792 101.826ZM124.873 105.429L125.283 109.003L131.083 104.697L124.462 101.826L124.873 105.429ZM77.646 16.4546L80.5464 14.2867L73.9253 11.4156L74.7456 18.5933L77.646 16.4546ZM75.9468 133.818L73.1636 136.132L79.9312 138.652L78.73 131.533L75.9468 133.818ZM125.019 45.8394L128.417 47.0992L127.216 39.98L121.65 44.5796L125.019 45.8394ZM24.2964 47.3335L23.7104 43.7593L18.144 48.3589L24.9116 50.8785L24.2964 47.3335Z" fill="#EAEDEF"/>
</svg>
