<svg width="136" height="101" viewBox="0 0 136 101" fill="none" xmlns="http://www.w3.org/2000/svg">
<path d="M135.386 99.3451L93.2061 19.1401C92.2161 17.2501 90.2811 16.0801 88.1511 16.0801C86.0211 16.0801 84.0861 17.2501 83.0961 19.1401L76.4661 31.7401L61.3761 3.06006C60.3861 1.17006 58.4511 6.10352e-05 56.3211 6.10352e-05C54.1911 6.10352e-05 52.2561 1.17006 51.2661 3.06006L0.626131 99.3451C0.446131 99.6901 0.461131 100.095 0.656131 100.425C0.851131 100.755 1.21113 100.965 1.60113 100.965H134.381C134.771 100.965 135.131 100.77 135.326 100.425C135.551 100.11 135.566 99.6901 135.386 99.3451ZM85.0461 20.1751C85.6461 19.0201 86.8461 18.3001 88.1511 18.3001C89.4561 18.3001 90.6411 19.0201 91.2561 20.1751L98.5461 34.0501C98.0361 34.8601 97.0311 35.8201 95.4711 36.3751C94.0161 36.8851 91.6761 37.1851 88.7361 35.7001L87.4611 35.0401C84.0711 33.3001 82.0611 32.2951 78.4911 32.6401L85.0461 20.1751ZM53.2161 4.09506C53.8161 2.94006 55.0161 2.22006 56.3211 2.22006C57.6261 2.22006 58.8111 2.94006 59.4261 4.09506L68.9811 22.2751C64.1511 21.3451 61.6311 23.3851 57.2361 26.9701C56.7261 27.3751 56.2011 27.8101 55.6311 28.2601C53.2011 30.2101 50.8311 30.8401 48.5961 30.1201C45.7011 29.1901 43.6761 26.2051 42.9561 23.6701C42.9561 23.6551 42.9411 23.6551 42.9411 23.6401L53.2161 4.09506ZM38.7711 92.3551H34.4961L36.1011 87.4201C36.1161 87.6751 36.2061 87.9301 36.4161 88.1401L38.7861 90.5101V92.3551H38.7711ZM39.8661 80.5501C39.2511 80.5501 38.7561 81.0451 38.7561 81.6601V87.3751L37.9611 86.5801C37.5261 86.1451 36.8361 86.1451 36.4011 86.5801C36.3711 86.6101 36.3561 86.6551 36.3261 86.6851L39.8811 75.7201L43.4361 86.6851C43.4061 86.6551 43.3911 86.6101 43.3611 86.5801C42.9261 86.1451 42.2361 86.1451 41.8011 86.5801L40.9761 87.4051V81.6601C40.9761 81.0451 40.4811 80.5501 39.8661 80.5501ZM43.6911 87.4201L45.2961 92.3551H40.9911V90.5401L43.3911 88.1401C43.5711 87.9451 43.6761 87.6901 43.6911 87.4201ZM54.6411 98.7601H40.9761V94.5751H45.9561C46.4961 94.5751 47.0061 94.3201 47.3361 93.8851C47.6661 93.4501 47.7561 92.8651 47.5911 92.3401L41.5161 73.5901C41.2911 72.8851 40.6311 72.4051 39.8811 72.4051C39.1311 72.4051 38.4711 72.8851 38.2461 73.5901L32.1711 92.3401C32.0061 92.8651 32.0961 93.4351 32.4261 93.8851C32.7561 94.3201 33.2661 94.5751 33.8061 94.5751H38.7561V98.7601H3.44613L41.5761 26.2351C42.7311 28.6801 44.8311 31.2451 47.9211 32.2351C48.6111 32.4601 49.4511 32.6251 50.3961 32.6251C52.2411 32.6251 54.5061 32.0101 57.0111 30.0001C57.5811 29.5501 58.1211 29.1001 58.6311 28.6951C63.4011 24.8251 65.2761 23.3251 70.3761 24.9301L75.2061 34.1251L55.0461 72.4501C53.1861 72.6901 51.5661 73.8901 50.8011 75.6301C49.4811 78.6751 48.8061 82.0651 48.8061 85.7401C48.8061 89.8801 51.3411 93.3301 54.6411 93.9601V98.7601ZM55.7511 80.5501C55.1361 80.5501 54.6411 81.0451 54.6411 81.6601V84.3901L53.8461 83.5951C53.4111 83.1601 52.7211 83.1601 52.2861 83.5951C51.8511 84.0301 51.8511 84.7201 52.2861 85.1551L54.6561 87.5251V91.6801C52.5861 91.0351 51.0411 88.6201 51.0411 85.7401C51.0411 82.3801 51.6561 79.2751 52.8561 76.5151C53.3661 75.3601 54.5061 74.6101 55.7661 74.6101C57.0261 74.6101 58.1811 75.3601 58.6761 76.5151C59.8761 79.2751 60.4911 82.3801 60.4911 85.7401C60.4911 88.6201 58.9461 91.0351 56.8761 91.6801V87.5401L59.2761 85.1401C59.7111 84.7051 59.7111 84.0151 59.2761 83.5801C58.8411 83.1451 58.1511 83.1451 57.7161 83.5801L56.8911 84.4051V81.6451C56.8611 81.0451 56.3511 80.5501 55.7511 80.5501ZM56.8611 98.7601V93.9751C60.1611 93.3301 62.6961 89.8951 62.6961 85.7551C62.6961 82.0951 62.0211 78.6901 60.7011 75.6451C60.0711 74.2201 58.8711 73.1551 57.4461 72.6901L77.0661 35.3401C77.0811 35.3401 77.0811 35.3251 77.0961 35.3251C77.2461 35.2501 77.3511 35.1301 77.4561 35.0101C81.2211 34.3501 82.7811 35.1151 86.4411 37.0051L87.7311 37.6651C89.6961 38.6551 91.4511 39.0001 92.9661 39.0001C94.2561 39.0001 95.3361 38.7451 96.2061 38.4451C97.5711 37.9651 98.7861 37.1551 99.6711 36.1951L132.566 98.7601H56.8611Z" fill="#EAEDEF"/>
</svg>
