<svg width="134" height="134" viewBox="0 0 134 134" fill="none" xmlns="http://www.w3.org/2000/svg">
<g id="Group 102">
<path id="Vector" d="M50.5456 43.556C51.4673 43.556 52.2131 42.8109 52.2131 41.8919V30.3731C52.2131 29.4541 51.4673 28.709 50.5456 28.709C49.624 28.709 48.8782 29.4541 48.8782 30.3731V41.8919C48.8782 42.8109 49.624 43.556 50.5456 43.556Z" fill="#EAEDEF"/>
<path id="Vector_2" d="M66.865 43.556C67.7867 43.556 68.5324 42.8109 68.5324 41.8919V30.3731C68.5324 29.4541 67.7867 28.709 66.865 28.709C65.9434 28.709 65.1976 29.4541 65.1976 30.3731V41.8919C65.1976 42.8109 65.9434 43.556 66.865 43.556Z" fill="#EAEDEF"/>
<path id="Vector_3" d="M83.1837 43.556C84.1053 43.556 84.8511 42.8109 84.8511 41.8919V30.3731C84.8511 29.4541 84.1053 28.709 83.1837 28.709C82.2621 28.709 81.5163 29.4541 81.5163 30.3731V41.8919C81.5163 42.8109 82.2621 43.556 83.1837 43.556Z" fill="#EAEDEF"/>
<path id="Vector_4" d="M50.5456 66.5537C51.4673 66.5537 52.2131 65.8086 52.2131 64.8896V53.3709C52.2131 52.4519 51.4673 51.7068 50.5456 51.7068C49.624 51.7068 48.8782 52.4519 48.8782 53.3709V64.8896C48.8782 65.8086 49.624 66.5537 50.5456 66.5537Z" fill="#EAEDEF"/>
<path id="Vector_5" d="M66.865 66.5537C67.7867 66.5537 68.5324 65.8086 68.5324 64.8896V53.3709C68.5324 52.4519 67.7867 51.7068 66.865 51.7068C65.9434 51.7068 65.1976 52.4519 65.1976 53.3709V64.8896C65.1976 65.8086 65.9434 66.5537 66.865 66.5537Z" fill="#EAEDEF"/>
<path id="Vector_6" d="M83.1837 66.5537C84.1053 66.5537 84.8511 65.8086 84.8511 64.8896V53.3709C84.8511 52.4519 84.1053 51.7068 83.1837 51.7068C82.2621 51.7068 81.5163 52.4519 81.5163 53.3709V64.8896C81.5163 65.8086 82.2621 66.5537 83.1837 66.5537Z" fill="#EAEDEF"/>
<path id="Vector_7" d="M50.5456 89.5515C51.4673 89.5515 52.2131 88.8064 52.2131 87.8874V76.3686C52.2131 75.4496 51.4673 74.7045 50.5456 74.7045C49.624 74.7045 48.8782 75.4496 48.8782 76.3686V87.8874C48.8782 88.8064 49.624 89.5515 50.5456 89.5515Z" fill="#EAEDEF"/>
<path id="Vector_8" d="M66.865 89.5515C67.7867 89.5515 68.5324 88.8064 68.5324 87.8874V76.3686C68.5324 75.4496 67.7867 74.7045 66.865 74.7045C65.9434 74.7045 65.1976 75.4496 65.1976 76.3686V87.8874C65.1976 88.8064 65.9434 89.5515 66.865 89.5515Z" fill="#EAEDEF"/>
<path id="Vector_9" d="M83.1837 89.5515C84.1053 89.5515 84.8511 88.8064 84.8511 87.8874V76.3686C84.8511 75.4496 84.1053 74.7045 83.1837 74.7045C82.2621 74.7045 81.5163 75.4496 81.5163 76.3686V87.8874C81.5163 88.8064 82.2621 89.5515 83.1837 89.5515Z" fill="#EAEDEF"/>
<path id="Vector_10" d="M133.561 76.0573C133.561 67.9399 126.945 61.3363 118.812 61.3363C110.678 61.3363 104.061 67.9399 104.061 76.0573C104.061 81.7315 107.3 86.6574 112.026 89.1134C107.3 91.5694 104.061 96.4954 104.061 102.17C104.061 109.724 109.794 115.96 117.144 116.79V130.578H99.4899V28.1432L100.946 29.1982C101.691 29.7377 102.732 29.5711 103.276 28.8293C103.816 28.0858 103.65 27.0449 102.906 26.5054L67.845 1.09521C67.2588 0.671058 66.4707 0.671058 65.8845 1.09521L30.8216 26.5054C30.0775 27.0449 29.9114 28.0858 30.452 28.8293C30.7793 29.2778 31.2873 29.5159 31.8035 29.5159C32.1422 29.5159 32.4858 29.4127 32.7821 29.1982L34.2395 28.1421V130.578H16.5851V116.79C23.9355 115.96 29.6688 109.724 29.6688 102.17C29.6688 96.4954 26.4292 91.5694 21.7038 89.1134C26.4292 86.6574 29.6688 81.7315 29.6688 76.0573C29.6688 67.9399 23.0512 61.3363 14.9177 61.3363C6.78421 61.3363 0.168304 67.9399 0.168304 76.0573C0.168304 81.7315 3.40705 86.6574 8.13196 89.1134C3.40705 91.5694 0.168304 96.4954 0.168304 102.17C0.168304 109.724 5.90013 115.96 13.2503 116.79V130.578H1.83571C0.91408 130.578 0.168304 131.323 0.168304 132.242C0.168304 133.161 0.91408 133.906 1.83571 133.906H131.894C132.815 133.906 133.561 133.161 133.561 132.242C133.561 131.323 132.815 130.578 131.894 130.578H120.479V116.79C127.829 115.96 133.561 109.724 133.561 102.17C133.561 96.4954 130.322 91.5694 125.597 89.1134C130.322 86.6574 133.561 81.7315 133.561 76.0573ZM3.50312 76.0573C3.50312 69.7754 8.62422 64.6645 14.9177 64.6645C21.2128 64.6645 26.3339 69.7754 26.3339 76.0573C26.3339 82.3391 21.2128 87.4493 14.9177 87.4493C8.62422 87.4493 3.50312 82.3391 3.50312 76.0573ZM3.50312 102.17C3.50312 95.8884 8.62422 90.7775 14.9177 90.7775C21.2128 90.7775 26.3339 95.8884 26.3339 102.17C26.3339 108.452 21.2128 113.563 14.9177 113.563C8.62422 113.563 3.50312 108.452 3.50312 102.17ZM37.5743 25.7252L66.8647 4.49818L96.1551 25.7262V130.578H85.2486V102.495C85.2486 101.576 84.5028 100.831 83.5812 100.831H50.1483C49.2266 100.831 48.4809 101.576 48.4809 102.495V130.578H37.5743V25.7252ZM81.9137 130.578H51.8157V104.159H81.9137V130.578ZM130.226 102.17C130.226 108.452 125.105 113.563 118.812 113.563C112.517 113.563 107.395 108.452 107.395 102.17C107.395 95.8884 112.517 90.7775 118.812 90.7775C125.105 90.7775 130.226 95.8884 130.226 102.17ZM118.812 87.4493C112.517 87.4493 107.395 82.3391 107.395 76.0573C107.395 69.7754 112.517 64.6645 118.812 64.6645C125.105 64.6645 130.226 69.7754 130.226 76.0573C130.226 82.3391 125.105 87.4493 118.812 87.4493Z" fill="#EAEDEF"/>
</g>
</svg>
