<svg width="187" height="49" viewBox="0 0 187 49" fill="none" xmlns="http://www.w3.org/2000/svg">
<g id="logo">
<path id="Vector" d="M8.52445 0.443359C10.7634 0.443359 13.2066 1.30918 14.7837 2.88596C16.4386 4.58519 17.3526 6.87084 17.3254 9.24238V12.7021C17.3254 14.7365 16.308 16.6687 15.09 18.1963C16.565 19.8223 17.7338 21.9587 17.7338 24.25V28.2659C17.7523 29.4494 17.5366 30.6249 17.0992 31.7248C16.6618 32.8247 16.0113 33.8273 15.185 34.6751C13.6079 36.2026 11.1683 37.0649 8.92929 37.0649H0.399414V0.460956L8.52445 0.443359ZM7.66196 6.49708V15.8557H8.62654C9.59464 15.8557 10.0347 15.2468 10.0347 14.3317V8.02459C10.0347 7.00743 9.42215 6.49708 8.50685 6.49708H7.66196ZM10.4783 22.6204C10.4928 22.4179 10.4653 22.2146 10.3975 22.0233C10.3297 21.8319 10.2229 21.6567 10.0841 21.5086C9.94519 21.3605 9.77715 21.2427 9.59054 21.1627C9.40392 21.0827 9.20275 21.0421 8.9997 21.0436H7.67956V31.0639H8.95041C10.1192 31.0639 10.4783 30.5571 10.4783 29.4872V22.6204Z" fill="#194745"/>
<path id="Vector_2" d="M29.2676 0.496094H36.4421V29.6384C36.4557 30.7832 36.2372 31.9188 35.7997 32.9768C35.3623 34.0348 34.715 34.9932 33.8969 35.7942C32.3232 37.3217 30.1864 37.7793 27.9474 37.7793C25.7085 37.7793 23.5223 37.3217 21.9944 35.7942C21.1775 34.9926 20.5311 34.0339 20.0943 32.976C19.6575 31.9181 19.4393 30.7829 19.4527 29.6384V0.496094H26.6238V30.2509C26.6238 31.268 27.5919 31.3701 27.9474 31.3701C28.303 31.3701 29.2676 31.268 29.2676 30.2509V0.496094Z" fill="#194745"/>
<path id="Vector_3" d="M39.1514 0.443359H46.3752V37.0473H39.1514V0.443359Z" fill="#194745"/>
<path id="Vector_4" d="M82.7511 9.24259V28.2485C82.7678 29.4357 82.5468 30.6143 82.1012 31.715C81.6557 32.8157 80.9945 33.8162 80.1566 34.6577C78.5637 36.2057 76.4251 37.0643 74.2037 37.0475H65.709V0.443575H74.2037C76.4256 0.427711 78.5643 1.28756 80.1566 2.83691C80.9944 3.67777 81.6555 4.67765 82.1011 5.77773C82.5467 6.8778 82.7677 8.05586 82.7511 9.24259ZM75.478 8.02481C75.478 6.96893 74.9676 6.44802 74.2037 6.44802H72.9856V31.0642H74.2037C75.0697 31.0642 75.478 30.5573 75.478 29.4874V8.02481Z" fill="#194745"/>
<path id="Vector_5" d="M99.3491 6.5606H94.5156V0.47168H111.508V6.5606H106.675V37.0791H99.3491V6.5606Z" fill="#194745"/>
<path id="Vector_6" d="M130.791 36.8891C130.791 36.9912 130.738 37.0405 130.636 37.0933H123.82C123.468 37.0933 123.208 36.2802 123.208 35.2631V24.2256C123.208 23.2084 122.856 22.6981 121.937 22.6981H120.666V37.0933H113.442V0.471752H121.937C123.041 0.467158 124.136 0.680561 125.157 1.09972C126.179 1.51888 127.107 2.13555 127.89 2.91436C128.714 3.75252 129.364 4.74604 129.801 5.83723C130.238 6.92842 130.453 8.09553 130.435 9.27077V13.9518C130.435 16.1903 129.263 18.3232 127.89 19.9C129.773 21.3782 130.435 23.6132 130.435 25.8516V35.3546C130.449 35.8385 130.551 36.3157 130.738 36.7624L130.791 36.8891ZM123.208 8.04947C123.208 7.0323 122.905 6.47268 121.937 6.47268H120.666V16.6971H121.937C122.905 16.6971 123.208 16.1903 123.208 15.1696V8.04947Z" fill="#194745"/>
<path id="Vector_7" d="M142.289 0.524414H149.463V29.6668C149.476 30.8114 149.257 31.9467 148.819 33.0045C148.382 34.0624 147.735 35.0209 146.918 35.8226C145.341 37.3465 143.204 37.8041 140.965 37.8041C138.726 37.8041 136.54 37.3465 135.016 35.8226C134.198 35.0213 133.551 34.0628 133.113 33.0049C132.676 31.947 132.457 30.8114 132.47 29.6668V0.524414H139.645V30.2757C139.645 31.2928 140.609 31.3949 140.965 31.3949C141.321 31.3949 142.289 31.2928 142.289 30.2757V0.524414Z" fill="#194745"/>
<path id="Vector_8" d="M168.132 29.8181C168.132 32.1587 167.319 34.0416 165.537 35.7698C164.164 37.1424 162.285 37.8041 159.588 37.8041C156.993 37.8041 155.314 37.1952 153.888 35.7698C152.107 34.0416 151.294 32.1587 151.294 29.8181V23.972H158.314V30.1771C158.314 31.1908 159.282 31.2928 159.588 31.2928C159.841 31.2928 160.806 31.1908 160.806 30.1771V25.7002C160.806 24.1234 160.348 23.972 158.62 22.2932L153.339 17.51C151.966 16.1374 151.304 14.814 151.304 12.5826V8.00711C151.282 6.87727 151.5 5.75556 151.946 4.71702C152.391 3.67848 153.054 2.74706 153.888 1.98506C155.297 0.608892 156.993 0 159.637 0C162.281 0 163.911 0.608892 165.337 1.98506C166.168 2.74233 166.829 3.66717 167.276 4.69854C167.723 5.72991 167.946 6.84437 167.931 7.96839V13.2478H160.806V7.61643C160.822 7.46833 160.807 7.31844 160.762 7.17661C160.716 7.03478 160.641 6.90423 160.541 6.79353C160.441 6.68282 160.319 6.59448 160.183 6.53431C160.046 6.47414 159.899 6.4435 159.75 6.4444C159.599 6.43028 159.448 6.44953 159.305 6.50079C159.163 6.55204 159.034 6.63403 158.927 6.74092C158.82 6.84781 158.738 6.97696 158.687 7.11917C158.636 7.26137 158.616 7.41314 158.63 7.56364V11.8364C158.63 13.5681 159.599 13.8708 160.817 15.0921L166.21 19.7485C167.84 21.3781 168.142 22.7507 168.142 25.5453L168.132 29.8181Z" fill="#194745"/>
<path id="Vector_9" d="M174.441 6.5606H169.611V0.47168H186.601V6.5606H181.771V37.0791H174.441V6.5606Z" fill="#194745"/>
<path id="Vector_10" d="M63.7237 42.4395H49.54V49H63.7237V42.4395Z" fill="#FF4800"/>
<path id="Vector_11" d="M49.5303 0.443359H57.0111V30.4938H63.7244V37.0543H49.5303V0.443359Z" fill="#FF4800"/>
</g>
</svg>
