<svg width="120" height="120" viewBox="0 0 120 120" fill="none" xmlns="http://www.w3.org/2000/svg">
<path d="M13.4759 84.9328C14.2964 84.9328 14.9617 84.2678 14.9617 83.4476V77.3279C14.9617 76.5078 14.2964 75.8428 13.4759 75.8428C12.6555 75.8428 11.9902 76.5078 11.9902 77.3279V83.4476C11.9902 84.2678 12.6555 84.9328 13.4759 84.9328Z" fill="#EAEDEF"/>
<path d="M105.812 95.6416H93.0209C92.2004 95.6416 91.5352 96.3066 91.5352 97.1268V110.492C91.5352 111.312 92.2004 111.977 93.0209 111.977H105.812C106.632 111.977 107.298 111.312 107.298 110.492V97.1268C107.298 96.3066 106.632 95.6416 105.812 95.6416ZM104.326 109.006H94.5066V98.6119H104.326V109.006Z" fill="#EAEDEF"/>
<path d="M84.2221 95.6416H71.431C70.6105 95.6416 69.9453 96.3066 69.9453 97.1268V110.492C69.9453 111.312 70.6105 111.977 71.431 111.977H84.2221C85.0426 111.977 85.7078 111.312 85.7078 110.492V97.1268C85.7078 96.3066 85.0426 95.6416 84.2221 95.6416ZM82.7364 109.006H72.9167V98.6119H82.7364V109.006Z" fill="#EAEDEF"/>
<path d="M62.6323 95.6416H49.8412C49.0207 95.6416 48.3555 96.3066 48.3555 97.1268V110.492C48.3555 111.312 49.0207 111.977 49.8412 111.977H62.6323C63.4527 111.977 64.118 111.312 64.118 110.492V97.1268C64.118 96.3066 63.4527 95.6416 62.6323 95.6416ZM61.1465 109.006H51.3269V98.6119H61.1465V109.006Z" fill="#EAEDEF"/>
<path d="M118.085 0.713867H2.19958C1.3791 0.713867 0.713867 1.37885 0.713867 2.19902V39.9267C0.713867 42.6137 1.94849 45.019 3.88262 46.6124V118.042C3.88262 118.862 4.54785 119.527 5.36833 119.527H114.917C115.737 119.527 116.402 118.862 116.402 118.042V46.6124C118.336 45.019 119.571 42.6137 119.571 39.9267V2.19902C119.571 1.37885 118.906 0.713867 118.085 0.713867ZM102.114 39.9267C102.114 43.0754 99.5313 45.6367 96.3567 45.6367C93.1822 45.6367 90.5996 43.0754 90.5996 39.9267V3.68416H102.114V39.9267ZM38.4139 45.6367C35.2393 45.6367 32.6567 43.0754 32.6567 39.9267V3.68416H44.171V39.9267C44.171 43.0754 41.5884 45.6367 38.4139 45.6367ZM47.1424 3.68416H58.6567V39.9267C58.6567 43.0754 56.0741 45.6367 52.8996 45.6367C49.725 45.6367 47.1424 43.0754 47.1424 39.9267V3.68416ZM61.6281 3.68416H73.1424V39.9267C73.1424 43.0754 70.5598 45.6367 67.3853 45.6367C64.2107 45.6367 61.6281 43.0754 61.6281 39.9267V3.68416ZM76.1139 3.68416H87.6281V39.9267C87.6281 43.0754 85.0456 45.6367 81.871 45.6367C78.6965 45.6367 76.1139 43.0754 76.1139 39.9267V3.68416ZM18.171 3.68416H29.6853V39.9267C29.6853 43.0754 27.1027 45.6367 23.9282 45.6367C20.7536 45.6367 18.171 43.0754 18.171 39.9267V3.68416ZM3.6853 3.68416H15.1996V39.9267C15.1996 43.0754 12.617 45.6367 9.44244 45.6367C6.26788 45.6367 3.6853 43.0754 3.6853 39.9267V3.68416ZM9.44244 48.607C12.4552 48.607 15.1161 47.0805 16.6853 44.7649C18.2545 47.0805 20.9154 48.607 23.9282 48.607C26.9409 48.607 29.6018 47.0805 31.171 44.7649C32.7402 47.0805 35.4011 48.607 38.4139 48.607C38.668 48.607 38.9181 48.5904 39.1669 48.5691V105.17H6.85405V48.2171C7.67226 48.4703 8.54162 48.607 9.44244 48.607ZM6.85405 108.141H39.1669V116.557H6.85405V108.141ZM42.1383 116.557V91.1643H113.431V116.557H42.1383ZM113.431 88.194H98.0601V81.1903H106.257C107.077 81.1903 107.743 80.5254 107.743 79.7052C107.743 78.885 107.077 78.2201 106.257 78.2201H86.8918C86.0713 78.2201 85.4061 78.885 85.4061 79.7052C85.4061 80.5254 86.0713 81.1903 86.8918 81.1903H95.0886V88.194H60.8345V81.1903H69.0313C69.8518 81.1903 70.517 80.5254 70.517 79.7052C70.517 78.885 69.8518 78.2201 69.0313 78.2201H49.6655C48.8451 78.2201 48.1798 78.885 48.1798 79.7052C48.1798 80.5254 48.8451 81.1903 49.6655 81.1903H57.8631V88.194H42.1383V47.7653C43.5634 47.0928 44.782 46.0557 45.6567 44.7649C47.226 47.0805 49.8868 48.607 52.8996 48.607C55.9124 48.607 58.5732 47.0805 60.1424 44.7649C61.7117 47.0805 64.3725 48.607 67.3853 48.607C70.3981 48.607 73.0589 47.0805 74.6281 44.7649C76.1974 47.0805 78.8582 48.607 81.871 48.607C84.8838 48.607 87.5446 47.0805 89.1139 44.7649C90.6831 47.0805 93.3439 48.607 96.3567 48.607C99.3695 48.607 102.03 47.0805 103.6 44.7649C105.169 47.0805 107.83 48.607 110.842 48.607C111.743 48.607 112.613 48.4703 113.431 48.2171V88.194ZM116.6 39.9267C116.6 43.0754 114.017 45.6367 110.842 45.6367C107.668 45.6367 105.085 43.0754 105.085 39.9267V3.68416H116.6V39.9267Z" fill="#EAEDEF"/>
</svg>
