<svg width="150" height="150" viewBox="0 0 150 150" fill="none" xmlns="http://www.w3.org/2000/svg">
<path d="M98.5294 132.487H150V36.3579H101.144V0H31.3725V47.5888L26.7974 31.0279L0 126.206H24.6732V150H27.9412V126.206H31.2091V132.487H98.5294ZM146.732 40.165V128.68H101.144V40.165H146.732ZM34.6405 3.80711H97.8758V128.68H34.6405V126.206H52.7778L49.3464 113.832H50.817V91.1802H47.549V106.98L34.6405 59.3909V3.80711ZM26.7974 43.401L48.366 122.398H4.41176L26.7974 43.401Z" fill="#EAEDEF"/>
<path d="M67.8109 55.0127H64.543V77.6459H67.8109V55.0127Z" fill="#EAEDEF"/>
<path d="M67.8109 18.6543H64.543V41.2875H67.8109V18.6543Z" fill="#EAEDEF"/>
<path d="M67.8109 91.1807H64.543V113.814H67.8109V91.1807Z" fill="#EAEDEF"/>
<path d="M84.8041 55.0127H81.5361V77.6459H84.8041V55.0127Z" fill="#EAEDEF"/>
<path d="M84.8041 18.6553H81.5361V41.2885H84.8041V18.6553Z" fill="#EAEDEF"/>
<path d="M84.8041 91.1807H81.5361V113.814H84.8041V91.1807Z" fill="#EAEDEF"/>
<path d="M50.8168 55.0127H47.5488V77.6459H50.8168V55.0127Z" fill="#EAEDEF"/>
<path d="M50.8168 18.6553H47.5488V41.2885H50.8168V18.6553Z" fill="#EAEDEF"/>
<path d="M116.83 55.0127H113.562V77.6459H116.83V55.0127Z" fill="#EAEDEF"/>
<path d="M116.83 91.1807H113.562V113.814H116.83V91.1807Z" fill="#EAEDEF"/>
<path d="M133.824 55.0127H130.556V77.6459H133.824V55.0127Z" fill="#EAEDEF"/>
<path d="M133.824 91.1807H130.556V113.814H133.824V91.1807Z" fill="#EAEDEF"/>
</svg>
