<svg width="150" height="150" viewBox="0 0 150 150" fill="none" xmlns="http://www.w3.org/2000/svg">
<g id="Component 8">
<path id="Compound Path" d="M98.5294 132.487H150V36.3579H101.144V0H31.3725V47.5888L26.7974 31.0279L0 126.206H24.6732V150H27.9412V126.206H31.2091V132.487H98.5294ZM146.732 40.165V128.68H101.144V40.165H146.732ZM34.6405 3.80711H97.8758V128.68H34.6405V126.206H52.7778L49.3464 113.832H50.817V91.1802H47.549V106.98L34.6405 59.3909V3.80711ZM26.7974 43.401L48.366 122.398H4.41176L26.7974 43.401Z" fill="#EAEDEF"/>
<path id="Path" d="M67.8109 55.0127H64.543V77.646H67.8109V55.0127Z" fill="#EAEDEF"/>
<path id="Path_2" d="M67.8109 18.6548H64.543V41.288H67.8109V18.6548Z" fill="#EAEDEF"/>
<path id="Path_3" d="M67.8109 91.1802H64.543V113.813H67.8109V91.1802Z" fill="#EAEDEF"/>
<path id="Path_4" d="M84.8039 55.0127H81.5359V77.6459H84.8039V55.0127Z" fill="#EAEDEF"/>
<path id="Path_5" d="M84.8039 18.6548H81.5359V41.2881H84.8039V18.6548Z" fill="#EAEDEF"/>
<path id="Path_6" d="M84.8039 91.1802H81.5359V113.813H84.8039V91.1802Z" fill="#EAEDEF"/>
<path id="Path_7" d="M50.817 55.0127H47.549V77.6459H50.817V55.0127Z" fill="#EAEDEF"/>
<path id="Path_8" d="M50.817 18.6548H47.549V41.2881H50.817V18.6548Z" fill="#EAEDEF"/>
<path id="Path_9" d="M116.83 55.0127H113.562V77.646H116.83V55.0127Z" fill="#EAEDEF"/>
<path id="Path_10" d="M116.83 91.1802H113.562V113.813H116.83V91.1802Z" fill="#EAEDEF"/>
<path id="Path_11" d="M133.824 55.0127H130.556V77.6459H133.824V55.0127Z" fill="#EAEDEF"/>
<path id="Path_12" d="M133.824 91.1802H130.556V113.813H133.824V91.1802Z" fill="#EAEDEF"/>
</g>
</svg>
