<svg width="150" height="150" viewBox="0 0 150 150" fill="none" xmlns="http://www.w3.org/2000/svg">
<g id="Component 8">
<path id="Vector" d="M148.125 146.25H140.453V137.443C145.558 136.551 149.454 132.096 149.454 126.739C149.454 120.742 144.576 115.863 138.578 115.863C132.58 115.863 127.701 120.742 127.701 126.739C127.701 132.096 131.597 136.551 136.703 137.443V146.25H114.913V137.443C120.019 136.551 123.916 132.096 123.916 126.739C123.916 120.742 119.036 115.863 113.038 115.863C107.041 115.863 102.162 120.742 102.162 126.739C102.162 132.096 106.058 136.551 111.163 137.443V146.25H98.3771V1.875C98.3771 0.839539 97.5375 0 96.5021 0H53.4979C52.4625 0 51.6229 0.839539 51.6229 1.875V39.3228H33.6008V26.5219C33.6008 25.4865 32.7612 24.6469 31.7258 24.6469C30.6903 24.6469 29.8508 25.4865 29.8508 26.5219V39.3228H10.4947C9.45923 39.3228 8.61969 40.1624 8.61969 41.1978V146.25H1.875C0.839539 146.25 0 147.09 0 148.125C0 149.16 0.839539 150 1.875 150H148.125C149.16 150 150 149.16 150 148.125C150 147.09 149.16 146.25 148.125 146.25ZM131.451 126.739C131.451 122.81 134.648 119.613 138.578 119.613C142.507 119.613 145.704 122.81 145.704 126.739C145.704 130.67 142.507 133.867 138.578 133.867C134.648 133.867 131.451 130.67 131.451 126.739ZM105.912 126.739C105.912 122.81 109.109 119.613 113.038 119.613C116.969 119.613 120.166 122.81 120.166 126.739C120.166 130.67 116.969 133.867 113.038 133.867C109.109 133.867 105.912 130.67 105.912 126.739ZM94.6271 3.75V146.25H84.9023V123.478C84.9023 122.443 84.0628 121.603 83.0273 121.603H66.9727C65.9372 121.603 65.0977 122.443 65.0977 123.478V146.25H55.3729V3.75H94.6271ZM81.1523 146.25H68.8477V125.353H81.1523V146.25ZM12.3697 43.0728H51.6229V146.25H41.6281V123.478C41.6281 122.443 40.7886 121.603 39.7531 121.603H23.6984C22.663 121.603 21.8234 122.443 21.8234 123.478V146.25H12.3697V43.0728ZM37.8781 146.25H25.5734V125.353H37.8781V146.25Z" fill="#EAEDEF"/>
<path id="Vector_2" d="M66.9727 28.3969C68.0082 28.3969 68.8477 27.5574 68.8477 26.5219V18.2602C68.8477 17.2248 68.0082 16.3852 66.9727 16.3852C65.9372 16.3852 65.0977 17.2248 65.0977 18.2602V26.5219C65.0977 27.5574 65.9372 28.3969 66.9727 28.3969Z" fill="#EAEDEF"/>
<path id="Vector_3" d="M83.0274 28.3969C84.0629 28.3969 84.9024 27.5574 84.9024 26.5219V18.2602C84.9024 17.2248 84.0629 16.3852 83.0274 16.3852C81.992 16.3852 81.1524 17.2248 81.1524 18.2602V26.5219C81.1524 27.5574 81.992 28.3969 83.0274 28.3969Z" fill="#EAEDEF"/>
<path id="Vector_4" d="M66.9727 49.4403C68.0082 49.4403 68.8477 48.6007 68.8477 47.5653V39.3036C68.8477 38.2681 68.0082 37.4286 66.9727 37.4286C65.9372 37.4286 65.0977 38.2681 65.0977 39.3036V47.5653C65.0977 48.6007 65.9372 49.4403 66.9727 49.4403Z" fill="#EAEDEF"/>
<path id="Vector_5" d="M83.0274 49.4403C84.0629 49.4403 84.9024 48.6007 84.9024 47.5653V39.3036C84.9024 38.2681 84.0629 37.4286 83.0274 37.4286C81.992 37.4286 81.1524 38.2681 81.1524 39.3036V47.5653C81.1524 48.6007 81.992 49.4403 83.0274 49.4403Z" fill="#EAEDEF"/>
<path id="Vector_6" d="M66.9727 70.4836C68.0082 70.4836 68.8477 69.6441 68.8477 68.6086V60.3469C68.8477 59.3114 68.0082 58.4719 66.9727 58.4719C65.9372 58.4719 65.0977 59.3114 65.0977 60.3469V68.6086C65.0977 69.6441 65.9372 70.4836 66.9727 70.4836Z" fill="#EAEDEF"/>
<path id="Vector_7" d="M83.0274 70.4836C84.0629 70.4836 84.9024 69.6441 84.9024 68.6086V60.3469C84.9024 59.3114 84.0629 58.4719 83.0274 58.4719C81.992 58.4719 81.1524 59.3114 81.1524 60.3469V68.6086C81.1524 69.6441 81.992 70.4836 83.0274 70.4836Z" fill="#EAEDEF"/>
<path id="Vector_8" d="M66.9727 91.528C68.0082 91.528 68.8477 90.6884 68.8477 89.653V81.3913C68.8477 80.3558 68.0082 79.5163 66.9727 79.5163C65.9372 79.5163 65.0977 80.3558 65.0977 81.3913V89.653C65.0977 90.6884 65.9372 91.528 66.9727 91.528Z" fill="#EAEDEF"/>
<path id="Vector_9" d="M83.0274 91.528C84.0629 91.528 84.9024 90.6884 84.9024 89.653V81.3913C84.9024 80.3558 84.0629 79.5163 83.0274 79.5163C81.992 79.5163 81.1524 80.3558 81.1524 81.3913V89.653C81.1524 90.6884 81.992 91.528 83.0274 91.528Z" fill="#EAEDEF"/>
<path id="Vector_10" d="M66.9727 112.571C68.0082 112.571 68.8477 111.732 68.8477 110.696V102.435C68.8477 101.399 68.0082 100.56 66.9727 100.56C65.9372 100.56 65.0977 101.399 65.0977 102.435V110.696C65.0977 111.732 65.9372 112.571 66.9727 112.571Z" fill="#EAEDEF"/>
<path id="Vector_11" d="M83.0274 112.571C84.0629 112.571 84.9024 111.732 84.9024 110.696V102.435C84.9024 101.399 84.0629 100.56 83.0274 100.56C81.992 100.56 81.1524 101.399 81.1524 102.435V110.696C81.1524 111.732 81.992 112.571 83.0274 112.571Z" fill="#EAEDEF"/>
<path id="Vector_12" d="M23.6984 70.4836C24.7338 70.4836 25.5734 69.6441 25.5734 68.6086V60.3469C25.5734 59.3114 24.7338 58.4719 23.6984 58.4719C22.6629 58.4719 21.8234 59.3114 21.8234 60.3469V68.6086C21.8234 69.6441 22.6629 70.4836 23.6984 70.4836Z" fill="#EAEDEF"/>
<path id="Vector_13" d="M39.7531 70.4836C40.7886 70.4836 41.6281 69.6441 41.6281 68.6086V60.3469C41.6281 59.3114 40.7886 58.4719 39.7531 58.4719C38.7176 58.4719 37.8781 59.3114 37.8781 60.3469V68.6086C37.8781 69.6441 38.7176 70.4836 39.7531 70.4836Z" fill="#EAEDEF"/>
<path id="Vector_14" d="M23.6984 91.528C24.7338 91.528 25.5734 90.6884 25.5734 89.653V81.3913C25.5734 80.3558 24.7338 79.5163 23.6984 79.5163C22.6629 79.5163 21.8234 80.3558 21.8234 81.3913V89.653C21.8234 90.6884 22.6629 91.528 23.6984 91.528Z" fill="#EAEDEF"/>
<path id="Vector_15" d="M39.7531 91.528C40.7886 91.528 41.6281 90.6884 41.6281 89.653V81.3913C41.6281 80.3558 40.7886 79.5163 39.7531 79.5163C38.7176 79.5163 37.8781 80.3558 37.8781 81.3913V89.653C37.8781 90.6884 38.7176 91.528 39.7531 91.528Z" fill="#EAEDEF"/>
<path id="Vector_16" d="M23.6984 112.571C24.7338 112.571 25.5734 111.732 25.5734 110.696V102.435C25.5734 101.399 24.7338 100.56 23.6984 100.56C22.6629 100.56 21.8234 101.399 21.8234 102.435V110.696C21.8234 111.732 22.6629 112.571 23.6984 112.571Z" fill="#EAEDEF"/>
<path id="Vector_17" d="M39.7531 112.571C40.7886 112.571 41.6281 111.732 41.6281 110.696V102.435C41.6281 101.399 40.7886 100.56 39.7531 100.56C38.7176 100.56 37.8781 101.399 37.8781 102.435V110.696C37.8781 111.732 38.7176 112.571 39.7531 112.571Z" fill="#EAEDEF"/>
</g>
</svg>
