<?xml version="1.0" standalone="no"?>
<!DOCTYPE svg PUBLIC "-//W3C//DTD SVG 20010904//EN"
 "http://www.w3.org/TR/2001/REC-SVG-20010904/DTD/svg10.dtd">
<svg version="1.0" xmlns="http://www.w3.org/2000/svg"
 width="800.000000pt" height="800.000000pt" viewBox="0 0 800.000000 800.000000"
 preserveAspectRatio="xMidYMid meet">
<metadata>
Created by potrace 1.14, written by Peter Selinger 2001-2017
</metadata>
<g transform="translate(0.000000,800.000000) scale(0.100000,-0.100000)"
fill="#000000" stroke="none">
<path d="M3765 7993 c-1007 -64 -1946 -495 -2635 -1210 -638 -661 -1007 -1456
-1112 -2393 -19 -175 -16 -640 6 -825 97 -816 399 -1518 925 -2150 108 -130
377 -394 518 -509 571 -466 1230 -757 1949 -861 824 -120 1631 9 2373 381
1171 585 1975 1694 2166 2988 187 1268 -241 2547 -1152 3437 -691 676 -1565
1070 -2525 1138 -135 10 -391 12 -513 4z m2503 -3233 c52 -24 98 -71 124 -129
16 -35 20 -65 20 -145 0 -56 0 -109 -1 -118 -1 -16 -14 -18 -116 -18 l-114 0
-3 108 c-3 104 -4 107 -27 110 -34 5 -41 -12 -41 -109 0 -104 -1 -102 148
-230 159 -137 156 -132 160 -306 5 -176 -5 -216 -65 -283 -55 -61 -113 -85
-208 -85 -93 0 -154 24 -204 81 -56 64 -71 116 -71 250 0 62 3 114 8 116 4 2
55 2 115 0 l107 -4 0 -101 c0 -56 4 -108 9 -115 5 -8 21 -12 37 -10 l29 3 3
103 c2 72 -1 108 -10 120 -7 10 -69 69 -137 132 -154 142 -160 154 -161 311 0
150 15 202 78 267 56 57 91 70 197 71 59 0 91 -4 123 -19z m-4923 -22 c59 -31
94 -66 126 -128 22 -41 24 -58 24 -175 0 -128 0 -131 -33 -188 l-33 -58 27
-34 c43 -57 53 -100 53 -235 1 -113 -2 -130 -25 -180 -32 -69 -56 -95 -119
-128 -48 -26 -57 -27 -237 -30 l-188 -4 0 597 0 597 178 -4 c168 -3 180 -5
227 -30z m455 -457 c0 -432 2 -491 16 -505 8 -9 22 -16 29 -16 7 0 21 7 29 16
14 14 16 73 16 505 l0 489 115 0 115 0 0 -504 c0 -537 0 -537 -52 -613 -43
-64 -119 -97 -223 -97 -68 0 -91 4 -137 27 -58 28 -105 83 -126 146 -9 24 -12
183 -12 537 l0 504 115 0 115 0 0 -489z m650 -106 l0 -595 -120 0 -120 0 0
595 0 595 120 0 120 0 0 -595z m1036 563 c29 -15 66 -45 83 -67 60 -75 61 -87
61 -493 0 -227 -4 -384 -10 -408 -15 -54 -67 -119 -125 -155 l-48 -30 -184 -3
-183 -4 0 597 0 597 178 -4 c170 -3 179 -4 228 -30z m1084 -68 l0 -100 -75 0
-75 0 0 -495 0 -495 -120 0 -120 0 0 495 0 495 -80 0 -80 0 0 100 0 100 275 0
275 0 0 -100z m429 84 c38 -11 67 -30 106 -67 70 -68 85 -118 85 -279 0 -126
-15 -188 -59 -244 l-21 -27 28 -32 c43 -48 52 -100 54 -323 l3 -202 -117 0
c-65 0 -119 1 -120 3 -1 1 -4 103 -7 227 l-6 225 -37 3 -38 3 0 -230 0 -231
-115 0 c-85 0 -115 3 -116 13 -3 34 -5 1163 -2 1170 8 15 307 8 362 -9z m491
-473 c0 -432 2 -491 16 -505 8 -9 22 -16 29 -16 7 0 21 7 29 16 14 14 16 73
16 505 l0 489 115 0 115 0 0 -504 c0 -355 -3 -513 -12 -537 -37 -110 -128
-172 -252 -173 -102 -1 -162 19 -212 71 -75 76 -74 72 -74 640 l0 503 115 0
115 0 0 -489z m1530 389 l0 -100 -75 0 -75 0 0 -495 0 -495 -120 0 -120 0 0
495 0 495 -80 0 -80 0 0 100 0 100 275 0 275 0 0 -100z m-1732 -1262 c8 -8 15
-8 27 2 20 17 32 5 15 -15 -20 -24 -70 -13 -70 17 0 12 14 10 28 -4z m-1858
-48 c0 -5 -20 -10 -45 -10 -33 0 -45 -4 -45 -15 0 -10 10 -15 28 -15 37 0 72
-26 72 -54 0 -34 -19 -46 -77 -46 l-53 0 0 75 0 75 60 0 c33 0 60 -4 60 -10z
m117 -25 c9 -19 20 -35 24 -35 4 0 13 16 20 35 14 39 45 51 33 13 -10 -35 -44
-101 -62 -120 -19 -22 -52 -24 -52 -3 0 8 9 15 19 15 30 0 30 19 -2 77 -23 43
-26 53 -13 53 9 0 24 -16 33 -35z m263 -30 c0 -51 3 -65 15 -65 10 0 15 -10
15 -30 0 -34 -25 -42 -33 -10 -4 17 -14 20 -57 20 -43 0 -53 -3 -57 -20 -8
-30 -23 -24 -23 10 0 17 4 30 10 30 11 0 30 64 30 103 0 26 2 27 50 27 l50 0
0 -65z m120 -10 c0 -60 -3 -75 -15 -75 -12 0 -15 15 -15 75 0 60 3 75 15 75
12 0 15 -15 15 -75z m196 40 c1 -16 5 -38 9 -47 3 -9 5 -27 3 -40 -3 -21 -9
-23 -65 -26 l-63 -3 0 76 0 76 58 -3 c56 -3 57 -4 58 -33z m204 25 c0 -5 -20
-10 -45 -10 -38 0 -45 -3 -45 -20 0 -16 7 -20 35 -20 19 0 35 -4 35 -10 0 -5
-16 -10 -35 -10 -31 0 -35 -3 -35 -25 0 -23 4 -25 45 -25 25 0 45 -4 45 -10 0
-6 -27 -10 -60 -10 l-60 0 0 75 0 75 60 0 c33 0 60 -4 60 -10z m200 -65 c0
-60 -3 -75 -15 -75 -12 0 -15 14 -15 65 0 62 -1 65 -24 65 -21 0 -24 -6 -30
-53 -4 -29 -10 -57 -14 -64 -10 -16 -44 -20 -49 -5 -3 6 2 12 10 12 20 0 27
22 27 81 l0 49 55 0 55 0 0 -75z m100 50 c0 -21 5 -25 31 -25 45 0 69 -16 69
-48 0 -40 -17 -52 -72 -52 l-48 0 0 75 c0 43 4 75 10 75 6 0 10 -11 10 -25z
m200 -5 c0 -28 2 -30 40 -30 38 0 40 2 40 30 0 20 5 30 15 30 12 0 15 -15 15
-75 0 -60 -3 -75 -15 -75 -10 0 -15 11 -15 35 0 34 -1 35 -40 35 -39 0 -40 -1
-40 -35 0 -24 -5 -35 -15 -35 -12 0 -15 15 -15 75 0 60 3 75 15 75 10 0 15
-10 15 -30z m212 -22 l3 -53 40 53 c55 72 65 69 65 -23 0 -59 -3 -75 -15 -75
-11 0 -14 12 -12 50 1 28 0 50 -3 50 -3 0 -21 -23 -40 -50 -49 -70 -60 -66
-60 25 0 85 17 103 22 23z m220 1 l3 -50 38 50 c54 73 67 68 67 -24 0 -59 -3
-75 -14 -75 -11 0 -16 15 -18 52 l-3 53 -38 -53 c-55 -74 -67 -70 -67 23 0 59
3 75 14 75 11 0 16 -14 18 -51z m418 -24 c0 -60 -3 -75 -15 -75 -12 0 -15 14
-15 65 l0 65 -40 0 -40 0 0 -65 c0 -37 -4 -65 -10 -65 -6 0 -10 32 -10 75 l0
75 65 0 65 0 0 -75z m188 3 c19 -45 27 -74 20 -77 -6 -2 -15 4 -20 13 -12 22
-77 22 -93 0 -6 -9 -16 -15 -22 -13 -17 6 49 149 69 149 11 0 26 -24 46 -72z
m210 60 c18 -18 14 -56 -7 -68 -11 -5 -33 -10 -50 -10 -28 0 -31 -3 -31 -30 0
-16 -4 -30 -10 -30 -6 0 -10 32 -10 75 l0 75 48 0 c26 0 53 -5 60 -12z m202 2
c0 -5 -11 -10 -25 -10 -24 0 -25 -2 -25 -65 0 -51 -3 -65 -15 -65 -12 0 -15
14 -15 65 0 63 -1 65 -25 65 -14 0 -25 5 -25 10 0 6 28 10 65 10 37 0 65 -4
65 -10z m90 -20 c0 -28 2 -30 40 -30 38 0 40 2 40 30 0 20 5 30 15 30 12 0 15
-15 15 -75 0 -60 -3 -75 -15 -75 -10 0 -15 11 -15 35 0 34 -1 35 -40 35 -39 0
-40 -1 -40 -35 0 -25 -4 -35 -16 -35 -12 0 -15 13 -13 75 1 55 5 75 15 75 9 0
14 -11 14 -30z m300 21 c0 -6 -19 -11 -42 -13 -57 -4 -60 -32 -5 -36 20 -2 37
-7 37 -12 0 -5 -17 -10 -37 -12 -31 -2 -39 -7 -41 -25 -3 -21 0 -23 47 -23 28
0 51 -4 51 -10 0 -6 -27 -10 -60 -10 l-60 0 0 75 0 75 55 0 c30 0 55 -4 55 -9z
m192 -16 c15 -34 -12 -65 -59 -65 -30 0 -33 -3 -33 -30 0 -20 -5 -30 -15 -30
-12 0 -15 15 -15 75 l0 75 55 0 c49 0 57 -3 67 -25z"/>
<path d="M1180 4420 l0 -150 28 0 c47 0 52 13 52 150 0 137 -5 150 -52 150
l-28 0 0 -150z"/>
<path d="M1180 3940 c0 -176 3 -183 59 -164 l26 9 3 145 c3 160 -1 170 -60
170 l-28 0 0 -160z"/>
<path d="M3320 4169 l0 -400 27 3 c50 6 53 23 53 400 0 201 -4 357 -10 372 -7
20 -16 26 -40 26 l-30 0 0 -401z"/>
<path d="M4870 4405 l0 -165 28 0 c50 0 51 6 53 163 0 80 -2 151 -6 157 -3 5
-22 10 -41 10 l-34 0 0 -165z"/>
<path d="M3340 3265 c0 -22 4 -25 35 -25 31 0 35 3 35 25 0 22 -4 25 -35 25
-31 0 -35 -3 -35 -25z"/>
<path d="M3730 3318 c0 -18 -3 -43 -6 -55 -6 -21 -3 -23 30 -23 l36 0 0 55 c0
54 0 55 -30 55 -27 0 -30 -3 -30 -32z"/>
<path d="M4040 3330 c0 -16 7 -20 30 -20 23 0 30 4 30 20 0 16 -7 20 -30 20
-23 0 -30 -4 -30 -20z"/>
<path d="M4040 3265 c0 -22 4 -25 34 -25 36 0 53 19 33 39 -6 6 -24 11 -39 11
-23 0 -28 -4 -28 -25z"/>
<path d="M4637 3293 c-4 -3 -7 -17 -7 -30 0 -20 5 -23 34 -23 40 0 57 27 30
47 -19 14 -47 17 -57 6z"/>
<path d="M5810 3321 c0 -5 -3 -16 -6 -25 -5 -12 0 -16 20 -16 24 0 25 2 14 25
-11 24 -28 34 -28 16z"/>
<path d="M5994 3335 c-9 -24 10 -39 41 -31 18 5 25 12 23 24 -4 23 -56 29 -64
7z"/>
<path d="M6770 3325 c0 -19 5 -25 23 -25 31 0 51 15 44 34 -4 10 -18 16 -37
16 -25 0 -30 -4 -30 -25z"/>
</g>
</svg>
